STARTFONT 2.1
FONT -Monotype-Arial Narrow-Regular-I-Normal--24-240-75-75-P-103-iso8859-4
SIZE 24 75 75
FONTBOUNDINGBOX 27 29 -5 -6

STARTPROPERTIES 24
FOUNDRY "Monotype"
FAMILY_NAME "Arial Narrow"
WEIGHT_NAME "Regular"
SLANT "I"
SETWIDTH_NAME "Normal"
ADD_STYLE_NAME ""
PIXEL_SIZE 24
POINT_SIZE 240
RESOLUTION_X 75
RESOLUTION_Y 75
SPACING "P"
AVERAGE_WIDTH 103
CHARSET_REGISTRY "iso8859"
CHARSET_ENCODING "4"
FACE_NAME "Arial Narrow Italic ISO Latin4"
_DEC_DEVICE_FONTNAMES "PS=arialnarrow-it-lat4"
COPYRIGHT "Copyright (c) 1993 Monotype Typography Ltd."
CAP_HEIGHT 20
X_HEIGHT 15
WEIGHT 10
QUAD_WIDTH 13
DEFAULT_CHAR 160
FONT_DESCENT 6
FONT_ASCENT 23
ENDPROPERTIES

CHARS 191

STARTCHAR space
ENCODING 32
SWIDTH 228 0
DWIDTH 6 0
BBX 0 0 0 0
BITMAP
ENDCHAR

STARTCHAR exclam
ENCODING 33
SWIDTH 228 0
DWIDTH 6 0
BBX 5 18 1 0
BITMAP
18
18
18
38
30
30
30
30
30
20
20
60
60
40
00
E0
C0
C0
ENDCHAR

STARTCHAR quotedbl
ENCODING 34
SWIDTH 291 0
DWIDTH 7 0
BBX 6 7 3 11
BITMAP
CC
D8
D8
D8
98
90
90
ENDCHAR

STARTCHAR numbersign
ENCODING 35
SWIDTH 456 0
DWIDTH 11 0
BBX 11 18 1 0
BITMAP
08C0
08C0
18C0
18C0
1880
FFE0
FFE0
1180
3180
3100
3100
FFE0
FFE0
2300
6300
6200
6200
4200
ENDCHAR

STARTCHAR dollar
ENCODING 36
SWIDTH 456 0
DWIDTH 11 0
BBX 11 21 1 -2
BITMAP
0100
0700
1FC0
1AC0
3260
3260
3200
3200
1C00
0E00
0780
0580
04C0
C4C0
44C0
68C0
7980
3F00
1E00
0800
1000
ENDCHAR

STARTCHAR percent
ENCODING 37
SWIDTH 729 0
DWIDTH 18 0
BBX 16 19 2 -1
BITMAP
3C06
660C
4618
C610
C630
C460
CC40
4CC0
7980
019E
0333
0223
0663
0C63
0862
1866
3026
203C
6000
ENDCHAR

STARTCHAR ampersand
ENCODING 38
SWIDTH 547 0
DWIDTH 14 0
BBX 12 19 2 -1
BITMAP
0700
0F80
1CC0
18C0
18C0
1980
1B80
0F00
1C00
3E00
6600
E330
C360
C1E0
C1C0
C1C0
63E0
7F70
3C20
ENDCHAR

STARTCHAR quoteright
ENCODING 39
SWIDTH 182 0
DWIDTH 5 0
BBX 3 7 3 11
BITMAP
60
E0
C0
40
40
80
80
ENDCHAR

STARTCHAR parenleft
ENCODING 40
SWIDTH 273 0
DWIDTH 7 0
BBX 7 24 2 -6
BITMAP
06
04
08
18
10
30
30
60
60
60
40
C0
C0
C0
C0
C0
C0
C0
C0
40
40
60
60
20
ENDCHAR

STARTCHAR parenright
ENCODING 41
SWIDTH 273 0
DWIDTH 7 0
BBX 7 24 -1 -6
BITMAP
08
0C
04
04
06
06
06
06
06
06
06
06
06
06
0C
0C
0C
18
18
10
30
20
40
C0
ENDCHAR

STARTCHAR asterisk
ENCODING 42
SWIDTH 319 0
DWIDTH 8 0
BBX 7 8 2 10
BITMAP
10
10
52
FE
18
38
6C
24
ENDCHAR

STARTCHAR plus
ENCODING 43
SWIDTH 479 0
DWIDTH 12 0
BBX 10 12 2 3
BITMAP
0C00
0C00
0C00
0C00
0C00
FFC0
FFC0
0C00
0C00
0C00
0C00
0C00
ENDCHAR

STARTCHAR comma
ENCODING 44
SWIDTH 228 0
DWIDTH 6 0
BBX 4 7 0 -4
BITMAP
70
60
60
20
20
40
80
ENDCHAR

STARTCHAR minus
ENCODING 45
SWIDTH 479 0
DWIDTH 12 0
BBX 10 2 2 8
BITMAP
FFC0
FFC0
ENDCHAR

STARTCHAR period
ENCODING 46
SWIDTH 228 0
DWIDTH 6 0
BBX 3 3 1 0
BITMAP
60
C0
C0
ENDCHAR

STARTCHAR slash
ENCODING 47
SWIDTH 228 0
DWIDTH 6 0
BBX 9 19 -1 -1
BITMAP
0080
0180
0100
0300
0300
0200
0600
0400
0C00
0800
1800
1800
1000
3000
2000
6000
4000
C000
C000
ENDCHAR

STARTCHAR zero
ENCODING 48
SWIDTH 456 0
DWIDTH 11 0
BBX 10 18 2 0
BITMAP
0F00
1F80
1980
30C0
20C0
60C0
60C0
60C0
C0C0
C0C0
C080
C180
C180
C180
C300
6600
7E00
1800
ENDCHAR

STARTCHAR one
ENCODING 49
SWIDTH 456 0
DWIDTH 11 0
BBX 7 18 3 0
BITMAP
06
0E
1C
3C
FC
EC
8C
0C
08
18
18
18
18
18
10
30
30
30
ENDCHAR

STARTCHAR two
ENCODING 50
SWIDTH 456 0
DWIDTH 11 0
BBX 10 18 2 0
BITMAP
0E00
3F80
3180
60C0
60C0
20C0
00C0
0180
0380
0700
0E00
1C00
3800
7000
6000
C000
FF80
FF00
ENDCHAR

STARTCHAR three
ENCODING 51
SWIDTH 456 0
DWIDTH 11 0
BBX 11 18 1 0
BITMAP
0780
0FC0
18C0
1860
3060
0060
0060
00C0
0780
0780
01C0
00C0
00C0
C0C0
6080
6180
3F00
1E00
ENDCHAR

STARTCHAR four
ENCODING 52
SWIDTH 456 0
DWIDTH 11 0
BBX 10 18 1 0
BITMAP
00C0
00C0
01C0
0280
0780
0D80
0D80
1980
3180
6100
4300
FFC0
FFC0
0300
0300
0200
0600
0600
ENDCHAR

STARTCHAR five
ENCODING 53
SWIDTH 456 0
DWIDTH 11 0
BBX 10 18 1 0
BITMAP
1FC0
1FC0
1000
3000
3000
2700
3F80
7180
60C0
00C0
00C0
00C0
C0C0
C180
C180
6300
7F00
1C00
ENDCHAR

STARTCHAR six
ENCODING 54
SWIDTH 456 0
DWIDTH 11 0
BBX 11 18 1 0
BITMAP
0780
0FC0
18C0
3040
3060
6000
6F00
6F80
F180
E0C0
C0C0
C0C0
C0C0
C0C0
4180
6380
3F00
1C00
ENDCHAR

STARTCHAR seven
ENCODING 55
SWIDTH 456 0
DWIDTH 11 0
BBX 9 18 3 0
BITMAP
FF80
FF80
0300
0300
0600
0C00
0C00
1800
1800
3000
3000
3000
6000
6000
6000
C000
C000
C000
ENDCHAR

STARTCHAR eight
ENCODING 56
SWIDTH 456 0
DWIDTH 11 0
BBX 10 18 2 0
BITMAP
0F00
3F80
31C0
60C0
60C0
60C0
3180
1F00
3F00
6180
6180
C180
C180
C180
C180
6300
7E00
1C00
ENDCHAR

STARTCHAR nine
ENCODING 57
SWIDTH 456 0
DWIDTH 11 0
BBX 11 18 1 0
BITMAP
0F00
1FC0
38C0
3060
6060
6060
6060
6060
60E0
31E0
3F40
0EC0
00C0
C180
4180
6300
7E00
1C00
ENDCHAR

STARTCHAR colon
ENCODING 58
SWIDTH 228 0
DWIDTH 6 0
BBX 4 13 1 0
BITMAP
30
30
30
00
00
00
00
00
00
00
60
C0
C0
ENDCHAR

STARTCHAR semicolon
ENCODING 59
SWIDTH 228 0
DWIDTH 6 0
BBX 5 17 0 -4
BITMAP
18
18
18
00
00
00
00
00
00
00
70
60
60
20
20
40
80
ENDCHAR

STARTCHAR less
ENCODING 60
SWIDTH 479 0
DWIDTH 12 0
BBX 10 12 2 3
BITMAP
0040
01C0
0780
1E00
7800
C000
E000
F800
3E00
0F80
03C0
00C0
ENDCHAR

STARTCHAR equal
ENCODING 61
SWIDTH 479 0
DWIDTH 12 0
BBX 10 7 2 5
BITMAP
FFC0
FFC0
0000
0000
0000
FFC0
FFC0
ENDCHAR

STARTCHAR greater
ENCODING 62
SWIDTH 479 0
DWIDTH 12 0
BBX 10 12 2 3
BITMAP
8000
E000
F800
3E00
0F00
03C0
01C0
0780
1E00
7800
E000
8000
ENDCHAR

STARTCHAR question
ENCODING 63
SWIDTH 456 0
DWIDTH 11 0
BBX 9 18 3 0
BITMAP
1E00
3F00
6380
C180
C180
4180
0300
0700
0E00
1C00
1800
3000
3000
2000
0000
6000
6000
6000
ENDCHAR

STARTCHAR at
ENCODING 64
SWIDTH 832 0
DWIDTH 21 0
BBX 19 23 1 -5
BITMAP
01F800
07FE00
0E0700
180180
3000C0
30E4C0
63FC40
631C60
461C60
C60C60
CC0C60
CC0860
CC1840
CC18C0
CC3980
463B80
67DF00
639C00
300060
1800C0
0E0380
07FF00
01F800
ENDCHAR

STARTCHAR A
ENCODING 65
SWIDTH 547 0
DWIDTH 14 0
BBX 13 18 0 0
BITMAP
00C0
01C0
01E0
0360
0360
0760
0660
0E60
0C60
0C30
1830
1FF0
3FF0
3030
6030
6030
C018
C018
ENDCHAR

STARTCHAR B
ENCODING 66
SWIDTH 547 0
DWIDTH 14 0
BBX 13 18 1 0
BITMAP
1FE0
1FF0
1830
1018
3018
3018
3030
3070
3FC0
3FE0
6070
6030
6030
6030
6030
C0E0
FFE0
FF80
ENDCHAR

STARTCHAR C
ENCODING 67
SWIDTH 592 0
DWIDTH 15 0
BBX 13 18 2 0
BITMAP
07C0
0FE0
1C30
3018
7018
6018
6000
C000
C000
C000
C000
C000
C038
E030
6060
70E0
3FC0
1F00
ENDCHAR

STARTCHAR D
ENCODING 68
SWIDTH 592 0
DWIDTH 15 0
BBX 14 18 1 0
BITMAP
1FE0
1FF0
1838
1818
180C
300C
300C
300C
300C
300C
300C
6018
6018
6038
6030
60E0
7FC0
FF80
ENDCHAR

STARTCHAR E
ENCODING 69
SWIDTH 547 0
DWIDTH 14 0
BBX 14 18 1 0
BITMAP
1FFC
1FF8
1800
3000
3000
3000
3000
3000
3FF0
7FF0
6000
6000
6000
6000
6000
C000
FFF0
FFE0
ENDCHAR

STARTCHAR F
ENCODING 70
SWIDTH 501 0
DWIDTH 13 0
BBX 13 18 1 0
BITMAP
1FF8
1FF0
3800
3000
3000
3000
3000
3000
7FE0
7FE0
6000
6000
6000
6000
C000
C000
C000
C000
ENDCHAR

STARTCHAR G
ENCODING 71
SWIDTH 638 0
DWIDTH 16 0
BBX 14 18 2 0
BITMAP
07E0
0FF0
1C38
3818
700C
600C
6000
C000
C000
C1F8
C3F8
C018
C018
C030
6030
70F0
3FE0
0F80
ENDCHAR

STARTCHAR H
ENCODING 72
SWIDTH 592 0
DWIDTH 15 0
BBX 15 18 1 0
BITMAP
180E
180C
180C
300C
300C
300C
3018
3FF8
3FF8
6018
6018
6018
6030
6030
C030
C030
C030
C020
ENDCHAR

STARTCHAR I
ENCODING 73
SWIDTH 228 0
DWIDTH 6 0
BBX 5 18 1 0
BITMAP
18
18
18
18
30
30
30
30
30
30
60
60
60
60
60
60
C0
C0
ENDCHAR

STARTCHAR J
ENCODING 74
SWIDTH 410 0
DWIDTH 10 0
BBX 10 18 1 0
BITMAP
00C0
00C0
00C0
00C0
00C0
0080
0180
0180
0180
0180
0180
0300
4300
C300
C300
C600
7E00
3C00
ENDCHAR

STARTCHAR K
ENCODING 75
SWIDTH 547 0
DWIDTH 14 0
BBX 14 18 1 0
BITMAP
181C
1838
1870
30E0
31C0
3380
3300
3600
3700
7B00
7180
6180
60C0
60C0
C060
C060
C030
C030
ENDCHAR

STARTCHAR L
ENCODING 76
SWIDTH 456 0
DWIDTH 11 0
BBX 10 18 1 0
BITMAP
1800
1800
1800
3000
3000
3000
3000
3000
2000
6000
6000
6000
6000
6000
C000
C000
FFC0
FFC0
ENDCHAR

STARTCHAR M
ENCODING 77
SWIDTH 683 0
DWIDTH 17 0
BBX 17 18 1 0
BITMAP
180380
1C0380
1C0700
3C0500
3C0F00
3C0F00
341B00
341B00
263200
663600
662600
666600
664600
66C600
C28C00
C38C00
C30C00
C30C00
ENDCHAR

STARTCHAR N
ENCODING 78
SWIDTH 592 0
DWIDTH 15 0
BBX 15 18 1 0
BITMAP
1806
1C0C
1C0C
140C
360C
360C
3208
3318
3318
6198
6198
6198
60D0
60F0
60F0
C070
C070
C070
ENDCHAR

STARTCHAR O
ENCODING 79
SWIDTH 638 0
DWIDTH 16 0
BBX 14 18 2 0
BITMAP
07C0
0FF0
1C38
3018
701C
600C
600C
C00C
C00C
C00C
C00C
C018
C018
6038
6030
30E0
3FC0
0F80
ENDCHAR

STARTCHAR P
ENCODING 80
SWIDTH 547 0
DWIDTH 14 0
BBX 13 18 1 0
BITMAP
1FE0
3FF0
3038
3018
3018
3018
2018
6030
6070
7FE0
7F80
6000
C000
C000
C000
C000
C000
C000
ENDCHAR

STARTCHAR Q
ENCODING 81
SWIDTH 638 0
DWIDTH 16 0
BBX 14 20 2 -2
BITMAP
07C0
0FF0
1C38
3018
701C
600C
600C
C00C
C00C
C00C
C00C
C018
C018
6338
61B0
30E0
3FE0
0FB8
0030
0010
ENDCHAR

STARTCHAR R
ENCODING 82
SWIDTH 592 0
DWIDTH 15 0
BBX 14 18 1 0
BITMAP
1FF0
1FF8
301C
300C
300C
300C
301C
3038
7FF0
7FC0
60C0
60C0
6060
6060
C030
C030
C030
C038
ENDCHAR

STARTCHAR S
ENCODING 83
SWIDTH 547 0
DWIDTH 14 0
BBX 13 18 1 0
BITMAP
07C0
1FF0
1830
3018
3018
3000
3800
1E00
0F80
03C0
00E0
0070
C030
C030
6030
70E0
3FC0
1F80
ENDCHAR

STARTCHAR T
ENCODING 84
SWIDTH 501 0
DWIDTH 13 0
BBX 11 18 3 0
BITMAP
FFE0
FFE0
0C00
0C00
0C00
0C00
0800
1800
1800
1800
1800
1800
1000
3000
3000
3000
3000
3000
ENDCHAR

STARTCHAR U
ENCODING 85
SWIDTH 592 0
DWIDTH 15 0
BBX 14 18 2 0
BITMAP
300C
3018
3018
3018
6018
6018
6030
6030
6030
C030
C030
C030
C060
C060
C0E0
61C0
7F80
1F00
ENDCHAR

STARTCHAR V
ENCODING 86
SWIDTH 547 0
DWIDTH 14 0
BBX 13 18 3 0
BITMAP
C038
C030
C060
C060
C060
C0C0
40C0
6180
6180
6300
6300
6600
2600
3C00
3C00
3C00
3800
3800
ENDCHAR

STARTCHAR W
ENCODING 87
SWIDTH 774 0
DWIDTH 19 0
BBX 19 18 3 0
BITMAP
C0C060
C0C0C0
C1C0C0
C1C180
C34180
C34300
C66300
C66300
CE6600
CC6600
CC6C00
D86C00
D86800
F07800
F07800
E07000
E07000
E06000
ENDCHAR

STARTCHAR X
ENCODING 88
SWIDTH 547 0
DWIDTH 14 0
BBX 17 18 -1 0
BITMAP
1C0380
0C0700
0C0E00
060C00
061800
033800
037000
01E000
01C000
01C000
03C000
076000
0E6000
0C3000
1C3000
381800
701800
E01C00
ENDCHAR

STARTCHAR Y
ENCODING 89
SWIDTH 547 0
DWIDTH 14 0
BBX 14 18 2 0
BITMAP
E01C
6018
7030
3070
3060
18E0
19C0
1D80
0D80
0F00
0600
0600
0600
0C00
0C00
0C00
0C00
0C00
ENDCHAR

STARTCHAR Z
ENCODING 90
SWIDTH 501 0
DWIDTH 13 0
BBX 13 18 0 0
BITMAP
1FF8
1FF8
0030
0070
0060
00C0
01C0
0180
0300
0700
0E00
0C00
1C00
3800
3000
7000
7FF0
FFE0
ENDCHAR

STARTCHAR bracketleft
ENCODING 91
SWIDTH 228 0
DWIDTH 6 0
BBX 8 23 0 -5
BITMAP
0F
0F
08
18
18
18
18
18
10
30
30
30
30
20
60
60
60
60
60
40
C0
F0
F0
ENDCHAR

STARTCHAR backslash
ENCODING 92
SWIDTH 228 0
DWIDTH 6 0
BBX 4 19 2 -1
BITMAP
80
80
80
C0
C0
C0
40
40
40
40
60
60
60
20
20
20
20
30
30
ENDCHAR

STARTCHAR bracketright
ENCODING 93
SWIDTH 228 0
DWIDTH 6 0
BBX 8 23 -1 -5
BITMAP
0F
1E
06
06
06
06
06
04
0C
0C
0C
0C
0C
08
18
18
18
18
18
10
30
F0
F0
ENDCHAR

STARTCHAR asciicircum
ENCODING 94
SWIDTH 385 0
DWIDTH 10 0
BBX 9 10 1 8
BITMAP
0800
1C00
1C00
1600
3600
3200
2300
6300
6100
C180
ENDCHAR

STARTCHAR underscore
ENCODING 95
SWIDTH 456 0
DWIDTH 11 0
BBX 13 1 -1 -3
BITMAP
FFF8
ENDCHAR

STARTCHAR quoteleft
ENCODING 96
SWIDTH 182 0
DWIDTH 5 0
BBX 3 7 3 11
BITMAP
20
40
40
80
C0
C0
C0
ENDCHAR

STARTCHAR a
ENCODING 97
SWIDTH 456 0
DWIDTH 11 0
BBX 10 13 1 0
BITMAP
0F00
3F80
30C0
60C0
00C0
0FC0
7E80
E180
C180
C180
C380
7D80
3980
ENDCHAR

STARTCHAR b
ENCODING 98
SWIDTH 456 0
DWIDTH 11 0
BBX 10 18 1 0
BITMAP
1000
3000
3000
3000
3000
3700
2F80
71C0
60C0
60C0
60C0
40C0
C0C0
C180
E180
E300
BF00
9C00
ENDCHAR

STARTCHAR c
ENCODING 99
SWIDTH 410 0
DWIDTH 10 0
BBX 9 13 1 0
BITMAP
0E00
3F80
3180
6080
6000
C000
C000
C000
C180
C300
6300
7E00
3C00
ENDCHAR

STARTCHAR d
ENCODING 100
SWIDTH 456 0
DWIDTH 11 0
BBX 11 18 1 0
BITMAP
0060
0060
0060
0060
0060
0E40
3FC0
31C0
61C0
60C0
C080
C080
C180
C180
C380
6380
7D00
3900
ENDCHAR

STARTCHAR e
ENCODING 101
SWIDTH 456 0
DWIDTH 11 0
BBX 10 13 1 0
BITMAP
0F00
3F80
3180
60C0
40C0
FFC0
FFC0
C000
C180
C180
6300
7F00
1C00
ENDCHAR

STARTCHAR f
ENCODING 102
SWIDTH 228 0
DWIDTH 6 0
BBX 7 18 1 0
BITMAP
0E
1E
18
30
30
FC
FC
30
20
60
60
60
60
40
40
C0
C0
C0
ENDCHAR

STARTCHAR g
ENCODING 103
SWIDTH 456 0
DWIDTH 11 0
BBX 11 18 1 -5
BITMAP
0E60
3F40
31C0
60C0
60C0
C0C0
C0C0
C080
C180
C180
6380
7F80
3980
0300
C300
C700
FE00
3C00
ENDCHAR

STARTCHAR h
ENCODING 104
SWIDTH 456 0
DWIDTH 11 0
BBX 10 18 1 0
BITMAP
1800
1000
3000
3000
3000
3780
27C0
38C0
70C0
60C0
60C0
6080
6180
C180
C180
C180
C180
C100
ENDCHAR

STARTCHAR i
ENCODING 105
SWIDTH 182 0
DWIDTH 5 0
BBX 5 18 1 0
BITMAP
18
10
30
00
00
30
20
60
60
60
60
60
40
C0
C0
C0
C0
C0
ENDCHAR

STARTCHAR j
ENCODING 106
SWIDTH 182 0
DWIDTH 5 0
BBX 8 23 -2 -5
BITMAP
03
06
06
00
00
06
04
0C
0C
0C
0C
0C
08
18
18
18
18
18
10
30
30
F0
E0
ENDCHAR

STARTCHAR k
ENCODING 107
SWIDTH 410 0
DWIDTH 10 0
BBX 10 18 1 0
BITMAP
1800
1000
3000
3000
3000
30C0
3180
6300
6600
6C00
6C00
7400
6600
C600
C200
C300
C300
C380
ENDCHAR

STARTCHAR l
ENCODING 108
SWIDTH 182 0
DWIDTH 5 0
BBX 4 18 1 0
BITMAP
10
30
30
30
30
30
20
60
60
60
60
40
40
C0
C0
C0
C0
80
ENDCHAR

STARTCHAR m
ENCODING 109
SWIDTH 683 0
DWIDTH 17 0
BBX 16 13 1 0
BITMAP
330E
37BF
38E3
30C3
60C3
6183
6182
6186
6186
C186
C106
C304
C30C
ENDCHAR

STARTCHAR n
ENCODING 110
SWIDTH 456 0
DWIDTH 11 0
BBX 10 13 1 0
BITMAP
3380
2FC0
38C0
70C0
60C0
60C0
6080
6180
4180
C180
C180
C180
C100
ENDCHAR

STARTCHAR o
ENCODING 111
SWIDTH 456 0
DWIDTH 11 0
BBX 10 13 1 0
BITMAP
0E00
3F80
3180
60C0
60C0
C0C0
C0C0
C0C0
C180
C180
6300
7F00
1C00
ENDCHAR

STARTCHAR p
ENCODING 112
SWIDTH 456 0
DWIDTH 11 0
BBX 11 18 0 -5
BITMAP
1380
17C0
38E0
3060
3060
3060
2060
2060
60C0
70C0
7180
6F80
4E00
C000
C000
C000
C000
C000
ENDCHAR

STARTCHAR q
ENCODING 113
SWIDTH 456 0
DWIDTH 11 0
BBX 10 18 1 -5
BITMAP
1E40
3F40
71C0
61C0
60C0
C080
C080
C180
C180
C380
6380
7D00
3B00
0300
0300
0300
0300
0200
ENDCHAR

STARTCHAR r
ENCODING 114
SWIDTH 273 0
DWIDTH 7 0
BBX 8 13 1 0
BITMAP
37
2E
78
70
60
60
60
40
C0
C0
C0
C0
80
ENDCHAR

STARTCHAR s
ENCODING 115
SWIDTH 410 0
DWIDTH 10 0
BBX 9 13 1 0
BITMAP
1E00
3F00
6300
6180
6000
3800
1E00
0600
C300
C300
C300
7E00
3C00
ENDCHAR

STARTCHAR t
ENCODING 116
SWIDTH 228 0
DWIDTH 6 0
BBX 6 18 1 0
BITMAP
08
10
30
30
30
FC
F8
60
60
60
60
60
40
C0
C0
C0
F0
70
ENDCHAR

STARTCHAR u
ENCODING 117
SWIDTH 456 0
DWIDTH 11 0
BBX 10 13 1 0
BITMAP
30C0
60C0
60C0
60C0
6080
6180
4180
C180
C180
C380
C700
7D00
3300
ENDCHAR

STARTCHAR v
ENCODING 118
SWIDTH 410 0
DWIDTH 10 0
BBX 9 13 2 0
BITMAP
8180
C180
C300
C300
C200
C600
4400
4C00
6800
7800
7000
7000
7000
ENDCHAR

STARTCHAR w
ENCODING 119
SWIDTH 592 0
DWIDTH 15 0
BBX 14 13 2 0
BITMAP
830C
C708
C718
C718
CD30
C930
D920
D960
D160
F140
71C0
6180
6180
ENDCHAR

STARTCHAR x
ENCODING 120
SWIDTH 410 0
DWIDTH 10 0
BBX 11 13 0 0
BITMAP
3060
18C0
1980
1980
0F00
0E00
0600
0E00
1A00
3300
3300
6180
C180
ENDCHAR

STARTCHAR y
ENCODING 121
SWIDTH 410 0
DWIDTH 10 0
BBX 12 18 0 -5
BITMAP
3070
3060
3040
30C0
30C0
1180
1180
1B00
1B00
1E00
1E00
1C00
0C00
1800
1800
3000
F000
E000
ENDCHAR

STARTCHAR z
ENCODING 122
SWIDTH 410 0
DWIDTH 10 0
BBX 11 13 0 0
BITMAP
3FE0
3FC0
01C0
0380
0300
0600
0E00
1C00
1800
3000
6000
7F80
FF80
ENDCHAR

STARTCHAR braceleft
ENCODING 123
SWIDTH 274 0
DWIDTH 7 0
BBX 8 24 2 -6
BITMAP
07
0E
0C
18
18
18
18
10
30
30
60
C0
C0
60
60
60
60
60
C0
C0
C0
C0
F0
60
ENDCHAR

STARTCHAR bar
ENCODING 124
SWIDTH 213 0
DWIDTH 5 0
BBX 2 24 2 -6
BITMAP
C0
C0
C0
C0
C0
C0
C0
C0
C0
C0
C0
C0
C0
C0
C0
C0
C0
C0
C0
C0
C0
C0
C0
C0
ENDCHAR

STARTCHAR braceright
ENCODING 125
SWIDTH 274 0
DWIDTH 7 0
BBX 8 24 -2 -6
BITMAP
06
0F
03
03
03
03
06
06
06
06
06
01
03
06
0C
0C
08
08
18
18
18
30
70
E0
ENDCHAR

STARTCHAR asciitilde
ENCODING 126
SWIDTH 479 0
DWIDTH 12 0
BBX 10 4 2 7
BITMAP
7040
FCC0
9FC0
8300
ENDCHAR

STARTCHAR space
ENCODING 160
SWIDTH 228 0
DWIDTH 7 0
BBX 0 0 0 0
BITMAP
ENDCHAR

STARTCHAR Aogonek
ENCODING 161
SWIDTH 547 0
DWIDTH 14 0
BBX 15 23 -1 -5
BITMAP
00E0
00E0
00A0
01A0
01B0
0330
0330
0630
0630
0C30
0C30
1FF8
1FF8
3818
3018
7018
6018
E018
0010
0010
0010
001E
000C
ENDCHAR

STARTCHAR afii240
ENCODING 162
SWIDTH 500 0
DWIDTH 13 0
BBX 13 13 1 0
BITMAP
3838
3860
31C0
3380
3600
7700
7B00
7300
6180
6180
E1C0
C0C0
C0E0
ENDCHAR

STARTCHAR Rcommaaccent
ENCODING 163
SWIDTH 592 0
DWIDTH 15 0
BBX 14 23 1 -5
BITMAP
1FF0
1FF8
181C
300C
300C
300C
301C
3038
3FF0
7FC0
60C0
60C0
6060
6060
C030
C030
C030
C038
0000
0400
0C00
0400
0800
ENDCHAR

STARTCHAR currency
ENCODING 164
SWIDTH 456 0
DWIDTH 11 0
BBX 10 12 2 3
BITMAP
8080
DDC0
FF80
6300
C180
C180
C180
C180
6300
FFC0
DD80
8080
ENDCHAR

STARTCHAR Itilde
ENCODING 165
SWIDTH 228 0
DWIDTH 6 0
BBX 8 22 1 0
BITMAP
39
3F
66
00
18
18
18
18
30
30
30
30
30
30
60
60
60
60
60
60
C0
C0
ENDCHAR

STARTCHAR Lcommaaccent
ENCODING 166
SWIDTH 456 0
DWIDTH 11 0
BBX 10 24 1 -6
BITMAP
1800
1800
1800
3000
3000
3000
3000
3000
2000
6000
6000
6000
6000
6000
C000
C000
FFC0
FFC0
0000
1800
1800
0800
1000
1000
ENDCHAR

STARTCHAR section
ENCODING 167
SWIDTH 456 0
DWIDTH 11 0
BBX 11 23 0 -5
BITMAP
0780
0FE0
1C60
1860
1800
1C00
0C00
3B00
2380
61C0
60C0
6060
3060
3860
1CC0
0F80
0300
0380
4180
C180
6380
3F00
1C00
ENDCHAR

STARTCHAR hungarumlaut
ENCODING 168
SWIDTH 273 0
DWIDTH 7 0
BBX 7 3 2 15
BITMAP
76
6C
D8
ENDCHAR

STARTCHAR Scaron
ENCODING 169
SWIDTH 547 0
DWIDTH 14 0
BBX 13 22 1 0
BITMAP
0370
03C0
01C0
0000
07C0
1FF0
1830
3018
3018
3000
3800
1E00
0F80
03C0
00E0
0070
C030
C030
6030
70E0
3FC0
1F80
ENDCHAR

STARTCHAR Emacron
ENCODING 170
SWIDTH 547 0
DWIDTH 14 0
BBX 14 22 1 0
BITMAP
03F0
07F0
0000
0000
1FFC
1FF8
1800
3000
3000
3000
3000
3000
3FF0
7FF0
6000
6000
6000
6000
6000
C000
FFF0
FFE0
ENDCHAR

STARTCHAR Gcommaaccent
ENCODING 171
SWIDTH 638 0
DWIDTH 16 0
BBX 14 23 2 -5
BITMAP
07E0
0FF0
1C38
3818
700C
600C
6000
C000
C000
C1F8
C3F8
C018
C018
C030
6030
70F0
3FE0
0F80
0000
0600
0600
0200
0C00
ENDCHAR

STARTCHAR afii237
ENCODING 172
SWIDTH 614 0
DWIDTH 15 0
BBX 15 18 3 0
BITMAP
FFFE
FFFC
0300
0300
0700
0700
0600
0600
FFE0
FFE0
0E00
0C00
0C00
0C00
1C00
1C00
1800
1800
ENDCHAR

STARTCHAR hyphen
ENCODING 173
SWIDTH 273 0
DWIDTH 7 0
BBX 6 2 1 5
BITMAP
FC
FC
ENDCHAR

STARTCHAR Zcaron
ENCODING 174
SWIDTH 501 0
DWIDTH 13 0
BBX 13 23 0 0
BITMAP
0330
0360
01C0
0180
0000
1FF8
1FF8
0030
0070
0060
00C0
01C0
0180
0300
0700
0E00
0C00
1C00
3800
3000
7000
7FF0
FFE0
ENDCHAR

STARTCHAR macron
ENCODING 175
SWIDTH 273 0
DWIDTH 7 0
BBX 7 2 2 15
BITMAP
FE
FC
ENDCHAR

STARTCHAR degree
ENCODING 176
SWIDTH 328 0
DWIDTH 8 0
BBX 5 6 3 12
BITMAP
70
D8
88
88
D8
70
ENDCHAR

STARTCHAR aogonek
ENCODING 177
SWIDTH 456 0
DWIDTH 11 0
BBX 11 19 1 -5
BITMAP
0E00
1F80
30C0
60C0
00C0
00C0
3FC0
7C80
C080
C180
C180
C380
7F80
3880
0100
0100
0100
01E0
00C0
ENDCHAR

STARTCHAR ogonek
ENCODING 178
SWIDTH 273 0
DWIDTH 7 0
BBX 4 6 1 -5
BITMAP
C0
80
80
80
F0
60
ENDCHAR

STARTCHAR rcommaaccent
ENCODING 179
SWIDTH 273 0
DWIDTH 7 0
BBX 9 18 0 -5
BITMAP
1B80
1700
3C00
3800
3000
3000
3000
2000
6000
6000
6000
6000
4000
0000
6000
6000
4000
C000
ENDCHAR

STARTCHAR acute
ENCODING 180
SWIDTH 273 0
DWIDTH 7 0
BBX 5 4 3 14
BITMAP
38
30
60
C0
ENDCHAR

STARTCHAR itilde
ENCODING 181
SWIDTH 182 0
DWIDTH 5 0
BBX 7 18 1 0
BITMAP
66
FC
9C
00
00
30
20
60
60
60
60
60
40
C0
C0
C0
C0
C0
ENDCHAR

STARTCHAR lcommaaccent
ENCODING 182
SWIDTH 182 0
DWIDTH 5 0
BBX 6 23 0 -5
BITMAP
0C
18
18
18
18
18
10
30
30
30
30
30
20
60
60
60
60
40
00
40
C0
40
80
ENDCHAR

STARTCHAR caron
ENCODING 183
SWIDTH 273 0
DWIDTH 7 0
BBX 6 4 3 14
BITMAP
9C
D8
F0
60
ENDCHAR

STARTCHAR commaaccent
ENCODING 184
SWIDTH 333 0
DWIDTH 8 0
BBX 2 5 3 -6
BITMAP
C0
C0
40
80
80
ENDCHAR

STARTCHAR scaron
ENCODING 185
SWIDTH 410 0
DWIDTH 10 0
BBX 10 18 1 0
BITMAP
0CC0
0580
0700
0700
0000
1E00
3F80
6180
60C0
7000
3C00
1F00
0780
C180
C180
E180
7F00
3C00
ENDCHAR

STARTCHAR emacron
ENCODING 186
SWIDTH 456 0
DWIDTH 11 0
BBX 10 17 1 0
BITMAP
0FC0
0FC0
0000
0000
0F00
3F80
7080
60C0
40C0
FFC0
FFC0
C000
C180
C180
6300
7F00
1C00
ENDCHAR

STARTCHAR gcommaaccent
ENCODING 187
SWIDTH 456 0
DWIDTH 11 0
BBX 11 23 1 -5
BITMAP
0100
0200
0200
0200
0000
0E60
3F60
31E0
60E0
60C0
C0C0
C0C0
C0C0
C1C0
C180
6380
7E80
3980
0180
C300
C300
7E00
3C00
ENDCHAR

STARTCHAR afii253
ENCODING 188
SWIDTH 280 0
DWIDTH 7 0
BBX 8 18 1 0
BITMAP
04
0C
0C
1C
18
7F
7E
18
38
30
FE
FC
70
60
60
60
78
38
ENDCHAR

STARTCHAR afii238
ENCODING 189
SWIDTH 723 0
DWIDTH 18 0
BBX 16 18 2 0
BITMAP
1CF8
1BFE
1F0E
1C07
3807
3803
3003
3003
3003
7007
7007
6007
6006
E00E
E00C
C11C
C3F8
C3F0
ENDCHAR

STARTCHAR zcaron
ENCODING 190
SWIDTH 410 0
DWIDTH 10 0
BBX 11 18 0 0
BITMAP
04E0
06C0
0380
0300
0000
3FE0
3FC0
0180
0380
0300
0600
0E00
1C00
1800
3000
6000
7F80
FF80
ENDCHAR

STARTCHAR afii254
ENCODING 191
SWIDTH 556 0
DWIDTH 14 0
BBX 12 18 1 -5
BITMAP
31E0
37F0
3C30
3830
7030
7070
6060
6060
6060
E060
C0E0
C0C0
C0C0
00C0
00C0
0180
0F80
0F00
ENDCHAR

STARTCHAR Amacron
ENCODING 192
SWIDTH 547 0
DWIDTH 14 0
BBX 13 21 0 0
BITMAP
03F0
03F0
0000
00C0
01C0
01E0
0360
0360
0760
0660
0E60
0C60
0C30
1830
1FF0
3FF0
3030
6030
6030
C018
C018
ENDCHAR

STARTCHAR Aacute
ENCODING 193
SWIDTH 547 0
DWIDTH 14 0
BBX 13 22 0 0
BITMAP
0070
00C0
0180
0000
00C0
01C0
01E0
0360
0360
0760
0660
0E60
0C60
0C30
1830
1FF0
3FF0
3030
6030
6030
C018
C018
ENDCHAR

STARTCHAR Acircumflex
ENCODING 194
SWIDTH 547 0
DWIDTH 14 0
BBX 13 22 0 0
BITMAP
00E0
01A0
0330
0000
00C0
01C0
01E0
0360
0360
0760
0660
0E60
0C60
0C30
1830
1FF0
3FF0
3030
6030
6030
C018
C018
ENDCHAR

STARTCHAR Atilde
ENCODING 195
SWIDTH 547 0
DWIDTH 14 0
BBX 13 22 0 0
BITMAP
0198
03F0
0220
0000
00C0
01C0
01E0
0360
0360
0760
0660
0E60
0C60
0C30
1830
1FF0
3FF0
3030
6030
6030
C018
C018
ENDCHAR

STARTCHAR Adieresis
ENCODING 196
SWIDTH 547 0
DWIDTH 14 0
BBX 13 22 0 0
BITMAP
01B0
0330
0330
0000
00C0
01C0
01E0
0360
0360
0760
0660
0E60
0C60
0C30
1830
1FF0
3FF0
3030
6030
6030
C018
C018
ENDCHAR

STARTCHAR Aring
ENCODING 197
SWIDTH 547 0
DWIDTH 14 0
BBX 13 23 0 0
BITMAP
00C0
0120
0120
0120
00C0
00C0
01C0
01E0
0360
0360
0660
0660
0E60
0C60
1C30
1830
1FF0
3FF0
3030
6030
6030
C018
C018
ENDCHAR

STARTCHAR AE
ENCODING 198
SWIDTH 820 0
DWIDTH 21 0
BBX 22 18 -1 0
BITMAP
007FFC
00FFFC
00CC00
01CC00
018C00
038C00
030C00
070C00
061FF8
0E1FF8
0C1800
1FF800
1FF800
383800
303000
703000
603FF8
E03FF0
ENDCHAR

STARTCHAR Iogonek
ENCODING 199
SWIDTH 228 0
DWIDTH 6 0
BBX 6 23 1 -5
BITMAP
1C
18
18
18
18
18
30
30
30
30
30
30
60
60
60
60
60
C0
80
80
80
F0
60
ENDCHAR

STARTCHAR Ccaron
ENCODING 200
SWIDTH 592 0
DWIDTH 15 0
BBX 13 22 2 0
BITMAP
0370
01C0
0180
0000
07C0
0FE0
1C30
3018
7018
6018
6000
C000
C000
C000
C000
C000
C030
C030
6070
60E0
3FC0
1F80
ENDCHAR

STARTCHAR Eacute
ENCODING 201
SWIDTH 547 0
DWIDTH 14 0
BBX 14 23 1 0
BITMAP
0060
00C0
0180
0100
0000
1FFC
1FF8
1800
3000
3000
3000
3000
3000
3FF0
7FF0
6000
6000
6000
6000
6000
C000
FFF0
FFE0
ENDCHAR

STARTCHAR Eogonek
ENCODING 202
SWIDTH 547 0
DWIDTH 14 0
BBX 14 23 1 -5
BITMAP
1FFC
1FF8
1800
3000
3000
3000
3000
3000
3FF0
7FF0
6000
6000
6000
6000
6000
C000
FFF0
FFE0
0100
0100
0100
01E0
00C0
ENDCHAR

STARTCHAR Edieresis
ENCODING 203
SWIDTH 547 0
DWIDTH 14 0
BBX 14 22 1 0
BITMAP
0330
0330
0360
0000
1FFC
1FF8
1800
3000
3000
3000
3000
3000
3FF0
7FF0
6000
6000
6000
6000
6000
C000
FFF0
FFE0
ENDCHAR

STARTCHAR Edotaccent
ENCODING 204
SWIDTH 547 0
DWIDTH 14 0
BBX 14 22 1 0
BITMAP
00C0
00C0
01C0
0000
1FFC
1FF8
1800
3000
3000
3000
3000
3000
3FF0
7FF0
6000
6000
6000
6000
6000
C000
FFF0
FFE0
ENDCHAR

STARTCHAR Iacute
ENCODING 205
SWIDTH 228 0
DWIDTH 6 0
BBX 7 22 1 0
BITMAP
0E
18
18
00
18
18
18
18
30
30
30
30
30
30
60
60
60
60
60
60
C0
C0
ENDCHAR

STARTCHAR Icircumflex
ENCODING 206
SWIDTH 228 0
DWIDTH 6 0
BBX 7 22 1 0
BITMAP
1C
36
66
00
18
18
18
18
30
30
30
30
30
30
60
60
60
60
60
60
C0
C0
ENDCHAR

STARTCHAR Imacron
ENCODING 207
SWIDTH 228 0
DWIDTH 6 0
BBX 8 21 1 0
BITMAP
7F
7F
00
18
18
18
18
30
30
30
30
30
30
60
60
60
60
60
60
C0
C0
ENDCHAR

STARTCHAR Eth
ENCODING 208
SWIDTH 592 0
DWIDTH 15 0
BBX 14 18 1 0
BITMAP
1FE0
1FF0
1838
1818
180C
300C
300C
300C
FF0C
FF0C
300C
6018
6018
6038
6070
60E0
7FC0
FF80
ENDCHAR

STARTCHAR Ncommaaccent
ENCODING 209
SWIDTH 592 0
DWIDTH 15 0
BBX 15 23 1 -5
BITMAP
1806
1C0C
1C0C
140C
360C
360C
3208
3318
3318
6198
6198
6198
60D0
60F0
60F0
C070
C070
C070
0000
0400
0C00
0400
0800
ENDCHAR

STARTCHAR Omacron
ENCODING 210
SWIDTH 638 0
DWIDTH 16 0
BBX 14 22 2 -1
BITMAP
03F0
03F0
0000
07C0
0FF0
1C30
3018
7018
600C
600C
C00C
C00C
C00C
C00C
C00C
C018
C018
6030
7070
3FE0
1F80
0200
ENDCHAR

STARTCHAR Kcommaaccent
ENCODING 211
SWIDTH 547 0
DWIDTH 14 0
BBX 14 23 1 -5
BITMAP
181C
1838
1870
30E0
31C0
3380
3300
3600
3700
7B00
7180
6180
60C0
60C0
C060
C060
C030
C030
0000
0C00
0C00
0800
1800
ENDCHAR

STARTCHAR Ocircumflex
ENCODING 212
SWIDTH 638 0
DWIDTH 16 0
BBX 14 23 2 -1
BITMAP
00E0
01A0
0330
0000
07C0
0FF0
1C38
3018
7018
600C
600C
C00C
C00C
C00C
C00C
C00C
C018
C018
6030
7070
3FE0
1F80
0200
ENDCHAR

STARTCHAR Otilde
ENCODING 213
SWIDTH 638 0
DWIDTH 16 0
BBX 14 23 2 -1
BITMAP
0190
03F0
0260
0000
07C0
0FF0
1C38
3018
7018
600C
600C
C00C
C00C
C00C
C00C
C00C
C018
C018
6030
7070
3FE0
1F80
0200
ENDCHAR

STARTCHAR Odieresis
ENCODING 214
SWIDTH 638 0
DWIDTH 16 0
BBX 14 23 2 -1
BITMAP
0330
0330
0330
0000
07C0
0FF0
1C30
3018
7018
600C
600C
C00C
C00C
C00C
C00C
C00C
C018
C018
6030
7070
3FE0
1F80
0200
ENDCHAR

STARTCHAR multiply
ENCODING 215
SWIDTH 479 0
DWIDTH 12 0
BBX 9 10 2 4
BITMAP
C100
6180
7300
3A00
1C00
1C00
3E00
3700
E380
4180
ENDCHAR

STARTCHAR Oslash
ENCODING 216
SWIDTH 638 0
DWIDTH 16 0
BBX 14 20 2 -1
BITMAP
0004
07CC
0FF0
1C38
3038
706C
604C
60CC
C18C
C10C
C20C
C60C
CC18
C818
7838
7030
30E0
7FC0
CF80
8000
ENDCHAR

STARTCHAR Uogonek
ENCODING 217
SWIDTH 592 0
DWIDTH 15 0
BBX 13 23 2 -5
BITMAP
3018
3018
3018
6018
6018
6030
6030
6030
6030
C030
C070
C060
C060
C0E0
C0C0
61C0
7F80
1E00
1000
1000
1000
1E00
0C00
ENDCHAR

STARTCHAR Uacute
ENCODING 218
SWIDTH 592 0
DWIDTH 15 0
BBX 14 22 2 0
BITMAP
00E0
0080
0180
0000
300C
3018
3018
3018
6018
6018
6030
6030
6030
C030
C030
C030
C060
C060
E0E0
71C0
3F80
1F00
ENDCHAR

STARTCHAR Ucircumflex
ENCODING 219
SWIDTH 592 0
DWIDTH 15 0
BBX 14 22 2 0
BITMAP
01C0
0360
0720
0000
300C
3018
3018
3018
6018
6018
6030
6030
6030
C030
C030
C030
C060
C060
E0E0
71C0
3F80
1F00
ENDCHAR

STARTCHAR Udieresis
ENCODING 220
SWIDTH 592 0
DWIDTH 15 0
BBX 14 22 2 0
BITMAP
0330
0330
0360
0000
300C
3018
3018
3018
6018
6018
6030
6030
6030
C030
C030
C030
C060
C060
E0E0
71C0
3F80
1F00
ENDCHAR

STARTCHAR Utilde
ENCODING 221
SWIDTH 592 0
DWIDTH 15 0
BBX 14 22 2 0
BITMAP
0330
07E0
0460
0000
300C
3018
3018
3018
6018
6018
6030
6030
6030
C030
C030
C030
C060
C060
C0E0
61C0
7F80
1F00
ENDCHAR

STARTCHAR Umacron
ENCODING 222
SWIDTH 592 0
DWIDTH 15 0
BBX 14 21 2 0
BITMAP
03F0
07F0
0000
300C
3018
3018
3018
6018
6018
6030
6030
6030
C030
C030
C030
C060
C060
E0E0
71C0
3F80
1F00
ENDCHAR

STARTCHAR germandbls
ENCODING 223
SWIDTH 501 0
DWIDTH 13 0
BBX 11 18 1 0
BITMAP
0780
0FC0
18C0
10C0
30C0
3180
3180
3300
2300
6300
6180
60C0
60C0
4060
C860
DCC0
CFC0
C700
ENDCHAR

STARTCHAR amacron
ENCODING 224
SWIDTH 456 0
DWIDTH 11 0
BBX 10 17 1 0
BITMAP
0FC0
0FC0
0000
0000
0F00
3F80
30C0
60C0
00C0
0FC0
7E80
E180
C180
C180
C380
7D80
3980
ENDCHAR

STARTCHAR aacute
ENCODING 225
SWIDTH 456 0
DWIDTH 11 0
BBX 10 18 1 0
BITMAP
0180
0300
0200
0600
0000
0F00
3F80
30C0
60C0
00C0
0FC0
7E80
E180
C180
C180
C380
7D80
3980
ENDCHAR

STARTCHAR acircumflex
ENCODING 226
SWIDTH 456 0
DWIDTH 11 0
BBX 10 18 1 0
BITMAP
0300
0780
0580
0C80
0000
0F00
3F80
30C0
60C0
00C0
0FC0
7E80
E180
C180
C180
C380
7D80
3980
ENDCHAR

STARTCHAR atilde
ENCODING 227
SWIDTH 456 0
DWIDTH 11 0
BBX 10 18 1 0
BITMAP
0640
0FC0
0980
0000
0000
0F00
3F80
30C0
60C0
00C0
0FC0
7E80
E180
C180
C180
C380
7D80
3980
ENDCHAR

STARTCHAR adieresis
ENCODING 228
SWIDTH 456 0
DWIDTH 11 0
BBX 10 18 1 0
BITMAP
0CC0
0CC0
0CC0
0000
0000
1F00
3F80
30C0
60C0
00C0
0FC0
7E80
E180
C180
C180
C380
7D80
3980
ENDCHAR

STARTCHAR aring
ENCODING 229
SWIDTH 456 0
DWIDTH 11 0
BBX 10 18 1 0
BITMAP
0300
0480
0480
0300
0000
0F00
3F80
30C0
60C0
00C0
0FC0
7F80
E080
C180
C180
C380
7F80
3980
ENDCHAR

STARTCHAR ae
ENCODING 230
SWIDTH 729 0
DWIDTH 18 0
BBX 17 13 1 0
BITMAP
0F1C00
3FBF00
31E300
60C180
008180
1FFF80
7EFF80
E18000
C18300
C38300
C6C600
7CFC00
383800
ENDCHAR

STARTCHAR iogonek
ENCODING 231
SWIDTH 182 0
DWIDTH 5 0
BBX 5 23 0 -5
BITMAP
18
18
18
00
00
18
30
30
30
30
30
20
60
60
60
60
40
C0
80
80
80
F0
60
ENDCHAR

STARTCHAR ccaron
ENCODING 232
SWIDTH 410 0
DWIDTH 10 0
BBX 10 18 1 0
BITMAP
0CC0
0D80
0700
0600
0000
0F00
3F80
3180
6080
6000
C000
C000
C000
C180
C300
6300
7E00
3C00
ENDCHAR

STARTCHAR eacute
ENCODING 233
SWIDTH 456 0
DWIDTH 11 0
BBX 10 18 1 0
BITMAP
0180
0300
0200
0600
0000
0E00
3F80
3080
60C0
40C0
FFC0
FFC0
C000
C180
C180
6300
7F00
1C00
ENDCHAR

STARTCHAR eogonek
ENCODING 234
SWIDTH 456 0
DWIDTH 11 0
BBX 10 18 1 -5
BITMAP
0E00
3F80
7180
60C0
40C0
FFC0
FFC0
C000
C180
C180
6300
7F00
3C00
1000
1000
1000
1E00
0C00
ENDCHAR

STARTCHAR edieresis
ENCODING 235
SWIDTH 456 0
DWIDTH 11 0
BBX 10 18 1 0
BITMAP
0CC0
0CC0
0CC0
0000
0000
0F00
3F80
7080
60C0
40C0
FFC0
FFC0
C000
C180
C180
6300
7F00
1C00
ENDCHAR

STARTCHAR edotaccent
ENCODING 236
SWIDTH 456 0
DWIDTH 11 0
BBX 10 17 1 0
BITMAP
0300
0300
0300
0000
0E00
3F80
3080
60C0
40C0
FFC0
FFC0
C000
C180
C180
6300
7F00
1C00
ENDCHAR

STARTCHAR iacute
ENCODING 237
SWIDTH 228 0
DWIDTH 6 0
BBX 6 18 1 0
BITMAP
0C
18
18
30
00
30
30
30
30
30
60
60
60
60
60
40
C0
C0
ENDCHAR

STARTCHAR icircumflex
ENCODING 238
SWIDTH 228 0
DWIDTH 6 0
BBX 7 18 1 0
BITMAP
1C
1C
34
66
00
30
30
30
30
30
60
60
60
60
60
40
C0
C0
ENDCHAR

STARTCHAR imacron
ENCODING 239
SWIDTH 228 0
DWIDTH 6 0
BBX 7 17 1 0
BITMAP
7E
7E
00
00
30
30
30
30
30
60
60
60
60
60
40
C0
C0
ENDCHAR

STARTCHAR dcroat
ENCODING 240
SWIDTH 456 0
DWIDTH 11 0
BBX 12 18 1 0
BITMAP
0060
0060
03F0
0060
0060
0E40
3FC0
31C0
61C0
60C0
C0C0
C080
C180
C180
C380
6380
7D00
3900
ENDCHAR

STARTCHAR ncommaaccent
ENCODING 241
SWIDTH 456 0
DWIDTH 11 0
BBX 10 18 1 -5
BITMAP
3380
2FC0
38C0
70C0
60C0
60C0
6080
6180
4180
C180
C180
C180
C100
0000
1800
1000
1000
3000
ENDCHAR

STARTCHAR omacron
ENCODING 242
SWIDTH 456 0
DWIDTH 11 0
BBX 10 17 1 0
BITMAP
0FC0
0FC0
0000
0000
0F00
3F80
3180
60C0
60C0
C0C0
C0C0
C0C0
C080
C180
6300
7F00
1C00
ENDCHAR

STARTCHAR kcommaaccent
ENCODING 243
SWIDTH 410 0
DWIDTH 10 0
BBX 10 23 1 -5
BITMAP
1800
1000
3000
3000
3000
30C0
3180
6300
6600
6C00
6C00
7400
6600
C600
C200
C300
C300
C380
0000
1000
3000
1000
2000
ENDCHAR

STARTCHAR ocircumflex
ENCODING 244
SWIDTH 456 0
DWIDTH 11 0
BBX 10 18 1 0
BITMAP
0300
0780
0580
0C80
0000
0E00
3F80
3180
60C0
60C0
C0C0
C0C0
C0C0
C080
C180
6300
7F00
1C00
ENDCHAR

STARTCHAR otilde
ENCODING 245
SWIDTH 456 0
DWIDTH 11 0
BBX 10 18 1 0
BITMAP
0640
0FC0
0980
0000
0000
0E00
3F80
3180
60C0
60C0
C0C0
C0C0
C0C0
C080
C180
6300
7F00
1C00
ENDCHAR

STARTCHAR odieresis
ENCODING 246
SWIDTH 456 0
DWIDTH 11 0
BBX 10 17 1 0
BITMAP
0CC0
0CC0
0C80
0000
0E00
3F80
3180
60C0
60C0
C0C0
C0C0
C0C0
C080
C180
6300
7F00
1C00
ENDCHAR

STARTCHAR divide
ENCODING 247
SWIDTH 479 0
DWIDTH 12 0
BBX 10 10 2 4
BITMAP
0C00
0C00
0C00
0000
FFC0
FFC0
0000
0C00
0C00
0C00
ENDCHAR

STARTCHAR oslash
ENCODING 248
SWIDTH 501 0
DWIDTH 13 0
BBX 10 15 2 -1
BITMAP
0040
0EC0
3F80
3180
63C0
62C0
C4C0
CCC0
C8C0
D180
F180
6300
7F00
DC00
4000
ENDCHAR

STARTCHAR uogonek
ENCODING 249
SWIDTH 456 0
DWIDTH 11 0
BBX 10 18 1 -5
BITMAP
30C0
20C0
60C0
60C0
60C0
6080
4180
C180
C180
C380
C780
7D00
7300
0200
0200
0200
03C0
0180
ENDCHAR

STARTCHAR uacute
ENCODING 250
SWIDTH 456 0
DWIDTH 11 0
BBX 10 18 1 0
BITMAP
0180
0300
0300
0600
0000
30C0
60C0
60C0
60C0
60C0
6180
4180
C180
C180
C380
C700
7D00
7300
ENDCHAR

STARTCHAR ucircumflex
ENCODING 251
SWIDTH 456 0
DWIDTH 11 0
BBX 10 18 1 0
BITMAP
0380
0780
0680
0CC0
0000
30C0
60C0
60C0
60C0
60C0
6180
4180
C180
C180
C380
C700
7D00
7300
ENDCHAR

STARTCHAR udieresis
ENCODING 252
SWIDTH 456 0
DWIDTH 11 0
BBX 10 18 1 0
BITMAP
04C0
0CC0
0CC0
0000
0000
30C0
60C0
60C0
60C0
6080
6180
4180
C180
C180
C380
C700
7D00
7300
ENDCHAR

STARTCHAR utilde
ENCODING 253
SWIDTH 456 0
DWIDTH 11 0
BBX 10 18 1 0
BITMAP
0E40
0FC0
1980
0000
0000
30C0
60C0
60C0
60C0
6080
6180
4180
C180
C180
C380
C700
7D00
3300
ENDCHAR

STARTCHAR umacron
ENCODING 254
SWIDTH 456 0
DWIDTH 11 0
BBX 10 17 1 0
BITMAP
0FC0
0FC0
0000
0000
30C0
60C0
60C0
60C0
60C0
6180
4180
C180
C180
C380
C700
7D00
7300
ENDCHAR

STARTCHAR dotaccent
ENCODING 255
SWIDTH 273 0
DWIDTH 7 0
BBX 3 3 4 15
BITMAP
E0
C0
C0
ENDCHAR
ENDFONT
